{"title":"Chvrches.Coachella.Festival.2014.H264.AC3.720p","uid":11314076,"size":606142820,"categoryP":"video","categoryS":"music_videos","magnet":"?xt=urn:btih:2011b6278effd57d82f327df855ab5072c83190f&amp;dn=Chvrches.Coachella.Festival.2014.H264.AC3.720p&amp;tr=udp%3A%2F%2Ftracker.openbittorrent.com%3A80&amp;tr=udp%3A%2F%2Fopen.demonii.com%3A1337&amp;tr=udp%3A%2F%2Ftracker.coppersurfer.tk%3A6969&amp;tr=udp%3A%2F%2Fexodus.desync.com%3A6969","seeders":0,"leechers":0,"uploader":"user101966","files":7,"time":1414532199,"description":"Having already uploaded a torrent of these performances at 1080p, I decided to bring them down to a more manageable 720p for weaker machines, and (for me at least) with no perceptible loss in visual quality. In actual fact, there's a small gain in quality for me because my machine lacks the video RAM to render a 1080p stream properly.\n\nNaturally I wouldn't have expected any loss since my monitor is only 1366x768 meaning that 1080p is of no &quot;theoretical&quot; advantage to me. Or, it *wouldn't be* unless the conversion to 720p was done so poorly, say by some hack civil servant working over at BBC headquarters that you can't fire because it's a government job, and who, without fail, every week manages to severely mutilate yet another otherwise perfect Jools Holland program. \n\nThat is why I never visit the BBS's YouTube channel; It's just too depressing, especially now since nobody else is allowed to upload that same content.\n\nBut, that's not the case here. I do know a little bit about what I'm doing.\n\nHere is the track list again (complete show had 11 tracks):\n----------------------------------------------------------\n1. We Sink\n2. Recover\n3. Tether\n4. Under The Tide\n5. The Mother We Share\n\nHere is an example of the video quality numerically (visually is another matter):\n---------------------------------------------------------------------------------\n\nGeneral\nComplete name                            : 1. Chvrches - We Sink @ Coachella Valley Music and Arts Festival (2014-04-19).avi\nFormat                                   : AVI\nFormat/Info                              : Audio Video Interleave\nFile size                                : 106 MiB\nDuration                                 : 3mn 59s\nOverall bit rate                         : 3 699 Kbps\n\nVideo\nID                                       : 0\nFormat                                   : AVC\nFormat/Info                              : Advanced Video Codec\nFormat profile                           : &lt;a class=&quot;__cf_email__&quot; href=&quot;/cdn-cgi/l/email-protection&quot; data-cfemail=&quot;99d1f0fef1d9d5aab7a8&quot;&gt;[email&amp;#160;protected]&lt;/a&gt;&lt;script cf-hash='f9e31' type=&quot;text/javascript&quot;&gt;\n/* &lt;![CDATA[ */!function(){try{var t=&quot;currentScript&quot;in document?document.currentScript:function(){for(var t=document.getElementsByTagName(&quot;script&quot;),e=t.length;e--;)if(t[e].getAttribute(&quot;cf-hash&quot;))return t[e]}();if(t&amp;&amp;t.previousSibling){var e,r,n,i,c=t.previousSibling,a=c.getAttribute(&quot;data-cfemail&quot;);if(a){for(e=&quot;&quot;,r=parseInt(a.substr(0,2),16),n=2;a.length-n;n+=2)i=parseInt(a.substr(n,2),16)^r,e+=String.fromCharCode(i);e=document.createTextNode(e),c.parentNode.replaceChild(e,c)}}}catch(u){}}();/* ]]&gt; */&lt;/script&gt;\nFormat settings, CABAC                   : Yes\nFormat settings, ReFrames                : 4 frames\nCodec ID                                 : H264\nDuration                                 : 3mn 59s\nBit rate                                 : 3 294 Kbps\nNominal bit rate                         : 4 000 Kbps\nWidth                                    : 1 280 pixels\nHeight                                   : 720 pixels\nDisplay aspect ratio                     : 16:9\nFrame rate                               : 29.970 fps\nColor space                              : YUV\nChroma subsampling                       : 4:2:0\nBit depth                                : 8 bits\nScan type                                : Progressive\nBits/(Pixel*Frame)                       : 0.119\nStream size                              : 94.0 MiB (89%)\nWriting library                          : x264 core 123 r2189 35cf912\nEncoding settings                        : cabac=1 / ref=3 / deblock=1:0:0 / analyse=0x3:0x133 / me=hex / subme=7 / psy=1 / psy_rd=1.00:0.00 / mixed_ref=1 / me_range=16 / chroma_me=1 / trellis=1 / 8x8dct=1 / cqm=0 / deadzone=21,11 / fast_pskip=1 / chroma_qp_offset=-2 / threads=3 / sliced_threads=0 / nr=0 / decimate=1 / interlaced=0 / bluray_compat=0 / constrained_intra=0 / bframes=3 / b_pyramid=2 / b_adapt=1 / b_bias=0 / direct=1 / weightb=1 / open_gop=0 / weightp=2 / keyint=250 / keyint_min=25 / scenecut=40 / intra_refresh=0 / rc_lookahead=40 / rc=2pass / mbtree=1 / bitrate=4000 / ratetol=1.0 / qcomp=0.60 / qpmin=10 / qpmax=51 / qpstep=4 / cplxblur=20.0 / qblur=0.5 / ip_ratio=1.40 / aq=1:1.00\n\nAudio\nID                                       : 1\nFormat                                   : AC-3\nFormat/Info                              : Audio Coding 3\nMode extension                           : CM (complete main)\nFormat settings, Endianness              : Big\nCodec ID                                 : 2000\nDuration                                 : 3mn 59s\nBit rate mode                            : Constant\nBit rate                                 : 384 Kbps\nChannel(s)                               : 6 channels\nChannel positions                        : Front: L C R, Side: L R, LFE\nSampling rate                            : 48.0 KHz\nBit depth                                : 16 bits\nCompression mode                         : Lossy\nStream size                              : 11.0 MiB (10%)\nAlignment                                : Aligned on interleaves\nInterleave, duration                     : 32 ms (0.96 video frame)\n\n-----------------------------------------------------------\n\n\n- user101966","torrent":{"xt":"urn:btih:2011b6278effd57d82f327df855ab5072c83190f","amp;dn":"Chvrches.Coachella.Festival.2014.H264.AC3.720p","amp;tr":["udp%3A%2F%2Ftracker.openbittorrent.com%3A80","udp%3A%2F%2Fopen.demonii.com%3A1337","udp%3A%2F%2Ftracker.coppersurfer.tk%3A6969","udp%3A%2F%2Fexodus.desync.com%3A6969"],"infoHash":"2011b6278effd57d82f327df855ab5072c83190f","infoHashBuffer":{"type":"Buffer","data":[32,17,182,39,142,255,213,125,130,243,39,223,133,90,181,7,44,131,25,15]},"announce":[],"urlList":[]}}